<svg width="12" height="20" viewBox="0 0 12 20" fill="none" xmlns="http://www.w3.org/2000/svg">
<path fill-rule="evenodd" clip-rule="evenodd" d="M2.6483 3.63636C2.6483 1.62806 4.14891 0 6 0C7.85109 0 9.3517 1.62806 9.3517 3.63636V10.3636C9.3517 12.3719 7.85109 14 6 14C4.14891 14 2.6483 12.3719 2.6483 10.3636V3.63636ZM6 1.45455C4.88934 1.45455 3.98898 2.43138 3.98898 3.63636V10.3636C3.98898 11.5686 4.88934 12.5455 6 12.5455C7.11066 12.5455 8.01102 11.5686 8.01102 10.3636V3.63636C8.01102 2.43138 7.11066 1.45455 6 1.45455Z" fill="#2B333E"/>
<path fill-rule="evenodd" clip-rule="evenodd" d="M0.63728 10.3636C1.0075 10.3636 1.30259 10.6911 1.35486 11.0888C1.67927 13.5569 3.63538 15.4545 6 15.4545C8.36462 15.4545 10.3207 13.5569 10.6451 11.0888C10.6974 10.6911 10.9925 10.3636 11.3627 10.3636C11.7329 10.3636 12.037 10.6906 11.9964 11.0898C11.6876 14.1242 9.46708 16.5337 6.67034 16.8691V19.2727C6.67034 19.6744 6.37022 20 6 20C5.62978 20 5.32966 19.6744 5.32966 19.2727V16.8691C2.53292 16.5337 0.312352 14.1242 0.00364901 11.0898C-0.0369669 10.6906 0.267061 10.3636 0.63728 10.3636Z" fill="#2B333E"/>
</svg>
