<svg width="50" height="50" viewBox="0 0 50 50" fill="none" xmlns="http://www.w3.org/2000/svg">
<rect width="50" height="50" rx="25" fill="url(#paint0_linear_1_555)"/>
<path d="M22.6506 24.74C23.8773 25.4467 24.4906 26.5133 24.4906 27.94C24.4906 29.1267 24.0706 30.1 23.2306 30.86C22.3906 31.62 21.3573 32 20.1306 32H14.1906V18H19.7106C20.8973 18 21.904 18.3733 22.7306 19.12C23.5573 19.8667 23.9706 20.8067 23.9706 21.94C23.9706 23.1 23.5306 24.0333 22.6506 24.74ZM19.7106 20.58H16.9506V23.66H19.7106C20.1373 23.66 20.4906 23.5133 20.7706 23.22C21.064 22.9267 21.2106 22.56 21.2106 22.12C21.2106 21.68 21.0706 21.3133 20.7906 21.02C20.5106 20.7267 20.1506 20.58 19.7106 20.58ZM16.9506 29.42H20.1306C20.5973 29.42 20.984 29.2667 21.2906 28.96C21.5973 28.64 21.7506 28.24 21.7506 27.76C21.7506 27.2933 21.5973 26.9067 21.2906 26.6C20.984 26.28 20.5973 26.12 20.1306 26.12H16.9506V29.42ZM34.76 24.74C35.9867 25.4467 36.6 26.5133 36.6 27.94C36.6 29.1267 36.18 30.1 35.34 30.86C34.5 31.62 33.4667 32 32.24 32H26.3V18H31.82C33.0067 18 34.0133 18.3733 34.84 19.12C35.6667 19.8667 36.08 20.8067 36.08 21.94C36.08 23.1 35.64 24.0333 34.76 24.74ZM31.82 20.58H29.06V23.66H31.82C32.2467 23.66 32.6 23.5133 32.88 23.22C33.1733 22.9267 33.32 22.56 33.32 22.12C33.32 21.68 33.18 21.3133 32.9 21.02C32.62 20.7267 32.26 20.58 31.82 20.58ZM29.06 29.42H32.24C32.7067 29.42 33.0933 29.2667 33.4 28.96C33.7067 28.64 33.86 28.24 33.86 27.76C33.86 27.2933 33.7067 26.9067 33.4 26.6C33.0933 26.28 32.7067 26.12 32.24 26.12H29.06V29.42Z" fill="white"/>
<defs>
<linearGradient id="paint0_linear_1_555" x1="25" y1="0" x2="25" y2="50" gradientUnits="userSpaceOnUse">
<stop stop-color="#1FDB5F"/>
<stop offset="1" stop-color="#31C764"/>
</linearGradient>
</defs>
</svg>
