<svg width="11" height="6" viewBox="0 0 11 6" fill="none" xmlns="http://www.w3.org/2000/svg">
<path fill-rule="evenodd" clip-rule="evenodd" d="M7.24867 0.116279C7.54256 0.3123 7.60601 0.68779 7.39038 0.95496L3.5165 5.7549C3.39216 5.90895 3.19455 5.99996 2.98437 5.99996C2.77419 5.99996 2.57657 5.90895 2.45224 5.7549L0.127908 2.87493C-0.0877163 2.60776 -0.0242711 2.23227 0.269617 2.03625C0.563505 1.84023 0.976546 1.89791 1.19217 2.16508L2.98437 4.3857L6.32612 0.245105C6.54174 -0.0220645 6.95478 -0.0797417 7.24867 0.116279ZM10.7304 0.116279C11.0243 0.3123 11.0877 0.68779 10.8721 0.95496L6.99821 5.7549C6.78259 6.02206 6.36954 6.07974 6.07566 5.88372C5.78177 5.6877 5.71832 5.31221 5.93395 5.04504L9.80783 0.245105C10.0235 -0.0220645 10.4365 -0.0797417 10.7304 0.116279Z" fill="#00521C"/>
</svg>
